# Blender 3.1.0
# www.blender.org
mtllib CurvedKatana.mtl
o Cube.031
v 0.777917 0.981448 0.734654
v 0.787533 0.995070 0.730634
v 0.796416 1.031500 0.755240
v 0.791050 1.035408 0.771072
v 0.781454 1.021725 0.775101
v 0.772561 0.985298 0.750487
v 0.792849 0.985891 0.784235
v 0.767082 0.974562 0.746958
v 0.787180 0.987285 0.719573
v 0.822605 1.004729 0.743689
v 0.803719 1.041310 0.759720
v 0.783621 1.028587 0.787105
v 0.754039 0.981749 0.740651
v 0.774137 0.994472 0.713266
v 0.794813 1.020257 0.730365
v 0.790675 1.048497 0.753413
v 0.770578 1.035774 0.780798
v 0.505165 1.142177 0.608068
v 0.514330 1.153948 0.602797
v 0.521318 1.182606 0.622172
v 0.515511 1.184607 0.636754
v 0.506346 1.172835 0.642025
v 0.499358 1.144177 0.622650
v 0.517824 1.168277 0.612485
v 0.502852 1.158506 0.632337
v 0.510338 1.163392 0.622411
v 0.505165 1.142177 0.608068
v 0.514330 1.153948 0.602797
v 0.521318 1.182606 0.622172
v 0.515511 1.184607 0.636754
v 0.506346 1.172835 0.642025
v 0.499358 1.144177 0.622650
v 0.517824 1.168277 0.612485
v 0.502852 1.158506 0.632337
v 0.510338 1.163392 0.622411
v 0.515573 1.136085 0.612919
v 0.529048 1.146562 0.608140
v 0.536095 1.175465 0.627680
v 0.526006 1.178877 0.641849
v 0.519356 1.164540 0.649875
v 0.512309 1.135638 0.630335
v 0.543153 1.155030 0.622945
v 0.526414 1.144105 0.645140
v 0.534783 1.149568 0.634042
v 0.477798 1.157447 0.594945
v 0.497058 1.164653 0.592919
v 0.500843 1.178956 0.602813
v 0.504105 1.193555 0.612459
v 0.488232 1.200239 0.623876
v 0.487367 1.182631 0.634654
v 0.484104 1.168032 0.625008
v 0.480320 1.153729 0.615114
v 0.483015 1.178843 0.609410
v 0.801215 0.998898 0.760813
v 0.790235 0.979684 0.761052
v 0.793729 0.994013 0.770740
v 0.797223 1.008342 0.780427
v 0.806388 1.020113 0.775156
v 0.812195 1.018113 0.760574
v 0.808701 1.003784 0.750887
v 0.805207 0.989455 0.741199
v 0.796042 0.977683 0.746470
v 0.709695 1.057840 0.738780
v 0.698970 1.063904 0.733677
v 0.741604 1.007185 0.737913
v 0.730875 1.013252 0.732808
v 0.718828 1.069629 0.733494
v 0.708167 1.075658 0.728421
v 0.724666 1.067611 0.718927
v 0.713942 1.073676 0.713825
v 0.730528 1.047991 0.713691
v 0.741435 1.041823 0.718881
v 0.745847 1.023024 0.712955
v 0.756576 1.016957 0.718060
v 0.736713 1.011234 0.718241
v 0.747379 1.005202 0.723316
v 0.715556 1.038220 0.733544
v 0.726463 1.032052 0.738734
v 0.570118 1.120467 0.664343
v 0.581025 1.114299 0.669533
v 0.591274 1.093481 0.649040
v 0.601941 1.087449 0.654115
v 0.600408 1.105271 0.643754
v 0.611137 1.099203 0.648859
v 0.585090 1.130238 0.644490
v 0.595997 1.124070 0.649680
v 0.579228 1.149858 0.649726
v 0.568504 1.155922 0.644624
v 0.573390 1.151876 0.664293
v 0.562728 1.157905 0.659220
v 0.596165 1.089432 0.668712
v 0.585436 1.095499 0.663607
v 0.564256 1.140086 0.669579
v 0.553532 1.146151 0.664476
v 0.638670 1.098004 0.704986
v 0.627929 1.104079 0.699875
v 0.642830 1.079347 0.698940
v 0.653751 1.073171 0.704137
v 0.671145 1.047030 0.704388
v 0.660413 1.053099 0.699281
v 0.666251 1.051081 0.684714
v 0.676921 1.045047 0.689791
v 0.647804 1.109794 0.699700
v 0.637126 1.115833 0.694619
v 0.675385 1.062871 0.679428
v 0.686117 1.056801 0.684535
v 0.657802 1.089119 0.679087
v 0.668723 1.082942 0.684284
v 0.653642 1.107776 0.685133
v 0.642901 1.113850 0.680022
v 1.494957 0.813009 1.141935
v 1.509458 0.819675 1.148929
v 1.543492 0.838965 1.186406
v 1.530934 0.843506 1.184965
v 1.537562 0.835001 1.194532
v 1.502833 0.815751 1.156505
v 0.787460 1.010320 0.749277
v 0.779884 1.005355 0.758701
v 0.783672 1.007837 0.753989
v 1.532861 0.828636 1.174025
v 1.529959 0.826494 1.177945
v 1.531410 0.827565 1.175985
v 0.852548 0.943133 0.788498
v 0.934327 0.904124 0.828522
v 1.018835 0.870387 0.871679
v 1.106980 0.843748 0.919021
v 1.199187 0.825438 0.971095
v 1.295094 0.815802 1.027636
v 1.393340 0.813877 1.087323
v 1.395583 0.809987 1.079181
v 1.297705 0.811772 1.018307
v 1.202206 0.821389 0.960632
v 1.110439 0.839765 0.907464
v 1.022751 0.866508 0.859049
v 0.938707 0.900339 0.814823
v 0.857386 0.939379 0.773715
v 0.869854 0.990746 0.807898
v 0.950327 0.949743 0.846701
v 1.033549 0.914288 0.888695
v 1.120405 0.885936 0.934872
v 1.211274 0.865668 0.985703
v 1.305749 0.853623 1.040854
v 1.402443 0.848653 1.098956
v 1.397994 0.840005 1.100699
v 1.300553 0.844083 1.042889
v 1.205342 0.855359 0.988057
v 1.113746 0.874946 0.937564
v 1.026162 0.902669 0.891734
v 0.942208 0.937500 0.850083
v 0.860998 0.977833 0.811611
v 1.400164 0.818624 1.077551
v 1.303066 0.821291 1.016413
v 1.208329 0.831664 0.958440
v 1.117306 0.850703 0.904945
v 1.030348 0.878057 0.856182
v 0.947022 0.912499 0.811599
v 0.866408 0.952209 0.770134
v 0.874802 0.986899 0.793197
v 0.954837 0.945860 0.833101
v 1.037606 0.910319 0.876175
v 1.124004 0.881875 0.923426
v 1.214423 0.861558 0.975345
v 1.308474 0.849544 1.031618
v 1.404778 0.844727 1.090888
v 0.866586 0.966860 0.787484
v 0.947357 0.926761 0.827607
v 1.030849 0.892051 0.870871
v 1.117965 0.864439 0.918310
v 1.209113 0.845049 0.970440
v 1.303922 0.834139 1.026974
v 1.401026 0.830674 1.086577
v 0.859582 0.962239 0.796209
v 0.940940 0.922478 0.835643
v 1.025025 0.888107 0.878225
v 1.112735 0.860838 0.924982
v 1.204476 0.841799 0.976431
v 1.299873 0.831251 1.032282
v 1.397556 0.828156 1.091195
v 0.774099 0.996367 0.775246
v 0.766771 1.012084 0.773979
v 0.771278 1.005358 0.762432
v 0.761778 0.995566 0.761906
vn 0.7265 -0.4130 0.3496
vn 0.8832 -0.1023 -0.1736
vn 0.8670 0.1974 -0.1731
vn 0.5675 0.3601 0.6074
vn 0.2656 -0.5270 0.6873
vn 0.0750 -0.3372 0.8374
vn 0.8798 -0.1274 -0.1742
vn 0.6575 0.6045 0.1513
vn 0.1283 0.2612 0.8579
vn 0.2378 -0.5431 0.6849
vn 0.3622 -0.5382 -0.6324
vn -0.1735 -0.8854 0.0817
vn -0.3481 0.0497 -0.8349
vn -0.8488 -0.2679 -0.1687
vn -0.8604 0.0452 0.2799
vn -0.8110 0.3674 -0.1672
vn -0.0101 0.5365 -0.7299
vn -0.6284 0.5265 0.3855
vn -0.8623 0.0636 0.2704
vn -0.6150 -0.2667 0.6093
vn -0.1334 0.8493 -0.2855
vn 0.7285 -0.4120 0.3466
vn 0.8741 -0.0570 -0.2309
vn 0.8664 0.2568 -0.0643
vn 0.5830 0.3374 0.6057
vn 0.1562 -0.5256 0.7211
vn 0.1634 -0.2020 0.8678
vn 0.0269 -0.7619 0.4893
vn 0.2971 -0.8351 -0.1870
vn 0.7299 -0.3031 -0.4428
vn -0.5077 -0.3313 0.6732
vn -0.3585 0.0640 0.8295
vn -0.7299 0.3031 0.4428
vn -0.8741 0.0570 0.2309
vn 0.1794 0.7356 0.4973
vn 0.5313 0.6447 -0.3504
vn -0.0269 0.7619 -0.4893
vn -0.2971 0.8351 0.1870
vn -0.5313 -0.6447 0.3504
vn -0.8664 -0.2568 0.0643
vn 0.5077 0.3313 -0.6732
vn 0.3585 -0.0640 -0.8295
vn -0.1634 0.2020 -0.8678
vn -0.1562 0.5256 -0.7211
vn -0.1794 -0.7356 -0.4973
vn -0.7285 0.4120 -0.3466
vn 0.2621 -0.5286 0.6874
vn -0.1569 -0.8242 0.3417
vn 0.0947 -0.8346 -0.3394
vn 0.8867 -0.1210 -0.1408
vn 0.5641 -0.3536 -0.6144
vn 0.7671 0.4791 -0.0514
vn 0.4294 0.5382 0.5887
vn 0.0461 0.0086 0.9047
vn -0.6543 -0.2023 -0.5930
vn -0.7552 -0.4362 0.2451
vn -0.7746 -0.1185 0.4546
vn 0.1391 0.4778 -0.7570
vn 0.1021 0.1233 -0.8916
vn 0.2483 0.7228 -0.4863
vn -0.4090 0.8036 0.0871
vn -0.6090 0.1633 0.6505
vn -0.5830 -0.3374 -0.6057
vn -0.5330 0.7275 -0.0857
vn -0.2513 0.8223 0.2854
vn 0.0991 0.7463 -0.5038
vn -0.3119 0.7999 -0.2890
vn -0.6559 0.5064 0.3661
vn -0.6440 0.2215 0.5973
vn -0.1794 0.8414 0.2836
vn 0.3782 0.5502 -0.6123
vn 0.4805 0.1010 -0.7613
vn 0.1200 -0.8618 -0.2520
vn -0.2145 -0.7814 -0.4051
vn -0.4666 0.0697 -0.7734
vn -0.4882 -0.0816 0.7587
vn -0.4142 -0.5345 0.6028
vn -0.8279 0.1163 -0.3489
vn 0.4526 0.3371 -0.7087
vn -0.4585 -0.3345 0.7060
vn -0.0003 -0.6550 0.6258
vn 0.2834 -0.8379 -0.1955
vn 0.7750 -0.1857 -0.4307
vn 0.4958 0.3288 -0.6832
vn 0.5174 0.5596 -0.4897
vn 0.4882 0.3243 -0.6907
vn 0.4992 0.5619 -0.5057
vn 0.4792 0.3187 -0.6996
vn 0.4739 0.5628 -0.5285
vn 0.4700 0.3124 -0.7086
vn 0.4452 0.5598 -0.5559
vn 0.4616 0.3056 -0.7171
vn 0.4180 0.5512 -0.5849
vn 0.4542 0.2986 -0.7247
vn 0.3966 0.5369 -0.6124
vn -0.5052 -0.3288 0.6763
vn -0.5327 -0.5086 0.5275
vn -0.4978 -0.3278 0.6822
vn -0.5154 -0.5115 0.5417
vn -0.4878 -0.3249 0.6908
vn -0.4928 -0.5149 0.5592
vn -0.4769 -0.3197 0.7007
vn -0.4674 -0.5178 0.5780
vn -0.4670 -0.3121 0.7108
vn -0.4418 -0.5197 0.5962
vn -0.4591 -0.3026 0.7199
vn -0.4183 -0.5210 0.6118
vn -0.4493 -0.1077 0.7792
vn -0.4515 -0.0975 0.7793
vn -0.4568 -0.0861 0.7775
vn -0.4649 -0.0754 0.7739
vn -0.4737 -0.0660 0.7694
vn -0.4809 -0.0581 0.7655
vn 0.4184 0.0858 -0.7989
vn 0.4258 0.0871 -0.7948
vn 0.4344 0.0869 -0.7902
vn 0.4434 0.0857 -0.7853
vn 0.4518 0.0845 -0.7806
vn 0.4584 0.0841 -0.7768
vn -0.1685 -0.7429 -0.4902
vn -0.1287 -0.7653 -0.4674
vn -0.0735 -0.7918 -0.4340
vn -0.0091 -0.8163 -0.3928
vn 0.0552 -0.8342 -0.3489
vn 0.1097 -0.8445 -0.3088
vn 0.1429 0.7568 0.4770
vn 0.1071 0.7761 0.4548
vn 0.0558 0.7996 0.4222
vn -0.0059 0.8216 0.3816
vn -0.0697 0.8377 0.3377
vn -0.1268 0.8467 0.2962
vt 0.875000 0.625000
vt 0.875000 0.500000
vt 0.625000 0.500000
vt 0.625000 0.625000
vt 0.625000 0.750000
vt 0.875000 0.750000
vt 0.875000 0.625000
vt 0.875000 0.500000
vt 0.625000 0.500000
vt 0.625000 0.625000
vt 0.625000 0.750000
vt 0.875000 0.750000
vt 0.875000 0.500000
vt 0.625000 0.500000
vt 0.625000 0.625000
vt 0.625000 0.750000
vt 0.875000 0.750000
vt 0.875000 0.625000
vt 0.875000 0.500000
vt 0.625000 0.500000
vt 0.625000 0.625000
vt 0.625000 0.750000
vt 0.875000 0.750000
vt 0.750000 0.500000
vt 0.750000 0.750000
vt 0.750000 0.625000
vt 0.875000 0.625000
vt 0.875000 0.500000
vt 0.625000 0.500000
vt 0.625000 0.625000
vt 0.625000 0.750000
vt 0.875000 0.750000
vt 0.750000 0.500000
vt 0.750000 0.750000
vt 0.750000 0.625000
vt 0.875001 0.625000
vt 0.875000 0.500000
vt 0.625000 0.500000
vt 0.625000 0.625000
vt 0.625000 0.750000
vt 0.875000 0.750000
vt 0.750000 0.500000
vt 0.750000 0.750000
vt 0.750000 0.625000
vt 0.875000 0.625000
vt 0.875000 0.500000
vt 0.750000 0.500000
vt 0.625000 0.500000
vt 0.625000 0.625000
vt 0.625000 0.750000
vt 0.750000 0.750000
vt 0.875000 0.750000
vt 0.750000 0.625000
vt 0.750000 0.625000
vt 0.875000 0.750000
vt 0.750000 0.750000
vt 0.625000 0.750000
vt 0.625000 0.625000
vt 0.625000 0.500000
vt 0.750000 0.500000
vt 0.875000 0.500000
vt 0.875000 0.625000
vt 0.625000 0.750000
vt 0.625000 0.750000
vt 0.875000 0.750000
vt 0.875000 0.750000
vt 0.625000 0.625000
vt 0.625000 0.625000
vt 0.625000 0.500000
vt 0.625000 0.500000
vt 0.750000 0.500000
vt 0.750000 0.500000
vt 0.875000 0.500000
vt 0.875000 0.500000
vt 0.875000 0.625000
vt 0.875000 0.625000
vt 0.750000 0.750000
vt 0.750000 0.750000
vt 0.750000 0.750000
vt 0.750000 0.750000
vt 0.875000 0.625000
vt 0.875000 0.625000
vt 0.875000 0.500000
vt 0.875000 0.500000
vt 0.750000 0.500000
vt 0.750000 0.500000
vt 0.625000 0.500000
vt 0.625000 0.500000
vt 0.625000 0.625000
vt 0.625000 0.625000
vt 0.875000 0.750000
vt 0.875000 0.750000
vt 0.625000 0.750000
vt 0.625000 0.750000
vt 0.625000 0.750000
vt 0.625000 0.750000
vt 0.750000 0.750000
vt 0.750000 0.750000
vt 0.875000 0.750000
vt 0.875000 0.750000
vt 0.875000 0.625000
vt 0.875000 0.625000
vt 0.625000 0.625000
vt 0.625000 0.625000
vt 0.875000 0.500000
vt 0.875000 0.500000
vt 0.750000 0.500000
vt 0.750000 0.500000
vt 0.625000 0.500000
vt 0.625000 0.500000
vt 0.875000 0.625000
vt 0.875000 0.500000
vt 0.625000 0.500000
vt 0.625000 0.625000
vt 0.625000 0.750000
vt 0.875000 0.750000
vt 0.750000 0.500000
vt 0.750000 0.750000
vt 0.750000 0.625000
vt 0.750000 0.500000
vt 0.750000 0.750000
vt 0.750000 0.625000
vt 0.875000 0.750000
vt 0.875000 0.750000
vt 0.875000 0.750000
vt 0.875000 0.750000
vt 0.875000 0.750000
vt 0.875000 0.750000
vt 0.875000 0.750000
vt 0.875000 0.625000
vt 0.875000 0.625000
vt 0.875000 0.625000
vt 0.875000 0.625000
vt 0.875000 0.625000
vt 0.875000 0.625000
vt 0.875000 0.625000
vt 0.625000 0.625000
vt 0.625000 0.625000
vt 0.625000 0.625000
vt 0.625000 0.625000
vt 0.625000 0.625000
vt 0.625000 0.625000
vt 0.625000 0.625000
vt 0.625000 0.750000
vt 0.625000 0.750000
vt 0.625000 0.750000
vt 0.625000 0.750000
vt 0.625000 0.750000
vt 0.625000 0.750000
vt 0.625000 0.750000
vt 0.875000 0.500000
vt 0.875000 0.500000
vt 0.875000 0.500000
vt 0.875000 0.500000
vt 0.875000 0.500000
vt 0.875000 0.500000
vt 0.875000 0.500000
vt 0.625000 0.500000
vt 0.625000 0.500000
vt 0.625000 0.500000
vt 0.625000 0.500000
vt 0.625000 0.500000
vt 0.625000 0.500000
vt 0.625000 0.500000
vt 0.750000 0.500000
vt 0.750000 0.500000
vt 0.750000 0.500000
vt 0.750000 0.500000
vt 0.750000 0.500000
vt 0.750000 0.500000
vt 0.750000 0.500000
vt 0.750000 0.750000
vt 0.750000 0.750000
vt 0.750000 0.750000
vt 0.750000 0.750000
vt 0.750000 0.750000
vt 0.750000 0.750000
vt 0.750000 0.750000
vt 0.875000 0.625000
vt 0.875000 0.663803
vt 0.822728 0.625000
vt 0.875000 0.587803
s 1
usemtl white.001
f 119/119/1 118/118/2 6/6/3 1/1/4
usemtl black.004
f 117/117/5 119/119/1 1/1/4 2/2/6
usemtl metal
f 10/10/7 11/11/8 12/12/9 7/7/10
f 9/9/11 10/10/7 7/7/10 8/8/12
f 14/14/13 13/13/14 182/182/15 181/181/16 15/15/17
f 7/7/10 12/12/9 17/17/18 180/180/19 179/179/20
f 11/11/8 10/10/7 15/15/17 16/16/21
f 15/15/17 181/181/16 180/180/19 17/17/18 16/16/21
f 10/10/7 9/9/11 14/14/13 15/15/17
f 12/12/9 11/11/8 16/16/21 17/17/18
f 9/9/11 8/8/12 13/13/14 14/14/13
f 26/26/22 25/25/23 23/23/24 18/18/25
f 24/24/26 26/26/22 18/18/25 19/19/27
f 20/20/28 21/21/29 26/26/22 24/24/26
f 21/21/29 22/22/30 25/25/23 26/26/22
f 72/72/31 74/74/32 61/61/33 60/60/34
f 76/76/35 65/65/36 55/55/37 62/62/38
f 69/69/39 72/72/31 60/60/34 59/59/40
f 74/74/32 76/76/35 62/62/38 61/61/33
f 91/91/36 80/80/41 97/97/41 100/100/36
f 78/78/41 63/63/42 57/57/43 56/56/44
f 99/99/36 98/98/41 77/77/41 66/66/36
f 95/95/42 103/103/45 68/68/45 64/64/42
f 89/89/45 87/87/39 110/110/39 104/104/45
f 80/80/41 93/93/42 96/96/42 97/97/41
f 93/93/42 89/89/45 104/104/45 96/96/42
f 87/87/39 86/86/31 107/107/31 110/110/39
f 82/82/35 91/91/36 100/100/36 101/101/35
f 19/19/27 18/18/25 81/81/35 83/83/32
f 23/23/24 25/25/23 79/79/41 92/92/36
f 20/20/28 24/24/26 85/85/31 88/88/39
f 25/25/23 22/22/30 94/94/42 79/79/41
f 21/21/29 20/20/28 88/88/39 90/90/45
f 24/24/26 19/19/27 83/83/32 85/85/31
f 18/18/25 23/23/24 92/92/36 81/81/35
f 35/35/46 27/27/46 32/32/46 34/34/46
f 33/33/46 28/28/46 27/27/46 35/35/46
f 29/29/46 33/33/46 35/35/46 30/30/46
f 30/30/46 35/35/46 34/34/46 31/31/46
usemtl black.004
f 44/44/22 43/43/47 41/41/48 36/36/49
f 42/42/50 44/44/22 36/36/49 37/37/51
f 38/38/52 39/39/53 44/44/22 42/42/50
f 39/39/53 40/40/54 43/43/47 44/44/22
usemtl Material.001
f 53/53/46 45/45/55 52/52/56 51/51/57
f 47/47/58 46/46/59 45/45/55 53/53/46
f 48/48/60 47/47/58 53/53/46 49/49/61
f 49/49/61 53/53/46 51/51/57 50/50/62
usemtl black.004
f 36/36/49 41/41/48 52/52/56 45/45/55
f 40/40/54 39/39/53 49/49/61 50/50/62
f 37/37/51 36/36/49 45/45/55 46/46/59
f 42/42/50 37/37/51 46/46/59 47/47/58
f 39/39/53 38/38/52 48/48/60 49/49/61
f 41/41/48 43/43/47 51/51/57 52/52/56
f 38/38/52 42/42/50 47/47/58 48/48/60
f 43/43/47 40/40/54 50/50/62 51/51/57
usemtl metal
f 22/22/30 21/21/29 90/90/45 94/94/42
f 86/86/31 84/84/32 105/105/32 107/107/31
f 84/84/32 82/82/35 101/101/35 105/105/32
f 109/109/39 108/108/31 71/71/31 70/70/39
f 102/102/35 99/99/36 66/66/36 75/75/35
f 103/103/45 109/109/39 70/70/39 68/68/45
f 108/108/31 106/106/32 73/73/32 71/71/31
f 106/106/32 102/102/35 75/75/35 73/73/32
f 98/98/41 95/95/42 64/64/42 77/77/41
f 67/67/45 69/69/39 59/59/40 58/58/63
f 65/65/36 78/78/41 56/56/44 55/55/37
f 58/58/63 54/54/46 56/56/44 57/57/43
f 59/59/40 60/60/34 54/54/46 58/58/63
f 60/60/34 61/61/33 62/62/38 54/54/46
f 54/54/46 62/62/38 55/55/37 56/56/44
usemtl Gray
f 72/72/31 69/69/39 70/70/39 71/71/31
f 78/78/41 65/65/36 66/66/36 77/77/41
f 69/69/39 67/67/45 68/68/45 70/70/39
f 74/74/32 72/72/31 71/71/31 73/73/32
f 76/76/35 74/74/32 73/73/32 75/75/35
f 67/67/45 63/63/42 64/64/42 68/68/45
f 65/65/36 76/76/35 75/75/35 66/66/36
f 63/63/42 78/78/41 77/77/41 64/64/42
f 86/86/31 87/87/39 88/88/39 85/85/31
f 80/80/41 91/91/36 92/92/36 79/79/41
f 87/87/39 89/89/45 90/90/45 88/88/39
f 84/84/32 86/86/31 85/85/31 83/83/32
f 82/82/35 84/84/32 83/83/32 81/81/35
f 89/89/45 93/93/42 94/94/42 90/90/45
f 91/91/36 82/82/35 81/81/35 92/92/36
f 93/93/42 80/80/41 79/79/41 94/94/42
f 108/108/31 109/109/39 110/110/39 107/107/31
f 98/98/41 99/99/36 100/100/36 97/97/41
f 109/109/39 103/103/45 104/104/45 110/110/39
f 106/106/32 108/108/31 107/107/31 105/105/32
f 102/102/35 106/106/32 105/105/32 101/101/35
f 103/103/45 95/95/42 96/96/42 104/104/45
f 99/99/36 102/102/35 101/101/35 100/100/36
f 95/95/42 98/98/41 97/97/41 96/96/42
usemtl metal
f 63/63/42 67/67/45 58/58/63 57/57/43
usemtl white.001
f 122/122/64 111/111/65 116/116/66 121/121/67
usemtl black.004
f 120/120/68 112/112/69 111/111/65 122/122/64
usemtl white.001
f 130/130/70 129/129/71 116/116/66 111/111/65
f 144/144/72 143/143/73 114/114/74 115/115/75
f 151/151/76 130/130/70 111/111/65 112/112/69
f 143/143/73 164/164/77 113/113/78 114/114/74
usemtl Gray
f 178/178/79 144/144/72 115/115/75 121/121/67
usemtl black.004
f 171/171/80 151/151/76 112/112/69 120/120/68
usemtl Gray
f 164/164/77 171/171/80 120/120/68 113/113/78
usemtl black.004
f 129/129/71 178/178/79 121/121/67 116/116/66
usemtl Gray
f 113/113/78 120/120/68 122/122/64 114/114/74
f 114/114/74 122/122/64 121/121/67 115/115/75
f 3/3/81 4/4/82 119/119/1 117/117/5
f 4/4/82 5/5/83 118/118/2 119/119/1
usemtl black.004
f 6/6/3 118/118/2 172/172/84 123/123/85
f 123/123/85 172/172/84 173/173/86 124/124/87
f 124/124/87 173/173/86 174/174/88 125/125/89
f 125/125/89 174/174/88 175/175/90 126/126/91
f 126/126/91 175/175/90 176/176/92 127/127/93
f 127/127/93 176/176/92 177/177/94 128/128/95
f 128/128/95 177/177/94 178/178/79 129/129/71
usemtl Gray
f 3/3/81 117/117/5 165/165/96 158/158/97
f 158/158/97 165/165/96 166/166/98 159/159/99
f 159/159/99 166/166/98 167/167/100 160/160/101
f 160/160/101 167/167/100 168/168/102 161/161/103
f 161/161/103 168/168/102 169/169/104 162/162/105
f 162/162/105 169/169/104 170/170/106 163/163/107
f 163/163/107 170/170/106 171/171/80 164/164/77
usemtl black.004
f 117/117/5 2/2/6 157/157/108 165/165/96
f 165/165/96 157/157/108 156/156/109 166/166/98
f 166/166/98 156/156/109 155/155/110 167/167/100
f 167/167/100 155/155/110 154/154/111 168/168/102
f 168/168/102 154/154/111 153/153/112 169/169/104
f 169/169/104 153/153/112 152/152/113 170/170/106
f 170/170/106 152/152/113 151/151/76 171/171/80
usemtl Gray
f 118/118/2 5/5/83 150/150/114 172/172/84
f 172/172/84 150/150/114 149/149/115 173/173/86
f 173/173/86 149/149/115 148/148/116 174/174/88
f 174/174/88 148/148/116 147/147/117 175/175/90
f 175/175/90 147/147/117 146/146/118 176/176/92
f 176/176/92 146/146/118 145/145/119 177/177/94
f 177/177/94 145/145/119 144/144/72 178/178/79
usemtl white.001
f 4/4/82 3/3/81 158/158/97 137/137/120
f 137/137/120 158/158/97 159/159/99 138/138/121
f 138/138/121 159/159/99 160/160/101 139/139/122
f 139/139/122 160/160/101 161/161/103 140/140/123
f 140/140/123 161/161/103 162/162/105 141/141/124
f 141/141/124 162/162/105 163/163/107 142/142/125
f 142/142/125 163/163/107 164/164/77 143/143/73
f 2/2/6 1/1/4 136/136/126 157/157/108
f 157/157/108 136/136/126 135/135/127 156/156/109
f 156/156/109 135/135/127 134/134/128 155/155/110
f 155/155/110 134/134/128 133/133/129 154/154/111
f 154/154/111 133/133/129 132/132/130 153/153/112
f 153/153/112 132/132/130 131/131/131 152/152/113
f 152/152/113 131/131/131 130/130/70 151/151/76
f 5/5/83 4/4/82 137/137/120 150/150/114
f 150/150/114 137/137/120 138/138/121 149/149/115
f 149/149/115 138/138/121 139/139/122 148/148/116
f 148/148/116 139/139/122 140/140/123 147/147/117
f 147/147/117 140/140/123 141/141/124 146/146/118
f 146/146/118 141/141/124 142/142/125 145/145/119
f 145/145/119 142/142/125 143/143/73 144/144/72
f 1/1/4 6/6/3 123/123/85 136/136/126
f 136/136/126 123/123/85 124/124/87 135/135/127
f 135/135/127 124/124/87 125/125/89 134/134/128
f 134/134/128 125/125/89 126/126/91 133/133/129
f 133/133/129 126/126/91 127/127/93 132/132/130
f 132/132/130 127/127/93 128/128/95 131/131/131
f 131/131/131 128/128/95 129/129/71 130/130/70
usemtl glow.001
f 179/179/20 180/180/19 181/181/16 182/182/15
usemtl metal
f 8/8/12 7/7/10 179/179/20 182/182/15 13/13/14
