# Blender 3.1.0
# www.blender.org
mtllib katana.mtl
o Cube.031
v 2.477915 1.020667 -0.182905
v 2.476216 1.020578 -0.191997
v 2.489946 1.024050 -0.189890
v 1.199202 1.158875 0.049881
v 1.198162 1.165648 0.036374
v 1.204074 1.194368 0.034991
v 1.207955 1.201396 0.047833
v 1.208995 1.194624 0.061340
v 1.203083 1.165904 0.062723
v 1.194677 1.136895 0.050940
v 1.190570 1.150567 0.012805
v 1.202594 1.208977 0.009992
v 1.212480 1.223377 0.046774
v 1.216587 1.209705 0.084909
v 1.204563 1.151295 0.087722
v 1.184144 1.139157 0.052885
v 1.180037 1.152829 0.014751
v 1.192061 1.211239 0.011937
v 1.201946 1.225639 0.048720
v 1.206053 1.211967 0.086854
v 1.194029 1.153557 0.089667
v 1.197014 1.170383 0.063813
v 1.192093 1.170127 0.037464
v 1.201674 1.193021 0.062723
v 1.196753 1.192765 0.036374
v 1.193434 1.164815 0.050901
v 1.200333 1.198332 0.049286
v 0.871055 1.234046 0.110441
v 0.869714 1.239357 0.097005
v 0.874374 1.261995 0.095914
v 0.877954 1.267562 0.108827
v 0.879295 1.262251 0.122263
v 0.874635 1.239613 0.123353
v 1.194423 1.181446 0.036919
v 1.199344 1.181702 0.063268
v 0.872044 1.250676 0.096459
v 0.876965 1.250932 0.122808
v 0.871055 1.234046 0.110441
v 0.869714 1.239357 0.097005
v 0.874374 1.261995 0.095914
v 0.877954 1.267562 0.108827
v 0.879295 1.262251 0.122263
v 0.874635 1.239613 0.123353
v 0.872044 1.250676 0.096459
v 0.876965 1.250932 0.122808
v 0.874504 1.250804 0.109634
v 0.885534 1.227843 0.107797
v 0.888736 1.233067 0.091103
v 0.894220 1.259706 0.089819
v 0.893653 1.267284 0.105897
v 0.900011 1.260008 0.120826
v 0.894527 1.233368 0.122109
v 0.906299 1.243204 0.087724
v 0.912090 1.243505 0.118730
v 0.909194 1.243354 0.103227
v 0.832626 1.239205 0.117568
v 0.843930 1.242689 0.099378
v 0.847038 1.255930 0.098669
v 0.849414 1.269328 0.098095
v 0.840745 1.278646 0.115669
v 0.855205 1.269630 0.129101
v 0.852829 1.256231 0.129675
v 0.849721 1.242990 0.130384
v 0.836686 1.258926 0.116618
v 2.392211 0.997896 -0.166364
v 2.468029 1.010536 -0.180909
v 2.439687 0.998794 -0.175381
v 2.466312 1.010447 -0.190100
v 2.390400 0.997802 -0.176059
v 2.437927 0.998702 -0.184804
v 2.474887 1.002876 -0.186872
v 2.390600 0.990920 -0.171013
v 2.443994 0.991327 -0.180989
v 2.390763 1.032413 -0.171446
v 2.391265 1.027871 -0.166164
v 2.389341 1.027771 -0.176467
v 2.440248 1.023724 -0.175611
v 2.439780 1.028177 -0.180560
v 2.438446 1.023631 -0.185261
v 2.281436 1.042558 -0.151125
v 2.172274 1.053670 -0.130844
v 2.063340 1.065770 -0.110615
v 1.954695 1.078883 -0.090450
v 1.846408 1.093035 -0.070362
v 1.738547 1.108255 -0.050364
v 1.631184 1.124573 -0.030470
v 1.524391 1.142024 -0.010693
v 1.418243 1.160641 0.008952
v 1.312814 1.180462 0.028451
v 2.279817 1.037702 -0.156862
v 2.170452 1.048600 -0.137296
v 2.061306 1.060485 -0.117781
v 1.952447 1.073381 -0.098328
v 1.843938 1.087315 -0.078952
v 1.735852 1.102315 -0.059664
v 1.628255 1.118412 -0.040479
v 1.521223 1.135641 -0.021410
v 1.414829 1.154035 -0.002471
v 1.309147 1.173631 0.016322
v 1.308324 1.144925 0.042487
v 1.414399 1.125212 0.022083
v 1.521183 1.106703 0.001534
v 1.628602 1.089360 -0.019144
v 1.736581 1.073149 -0.039938
v 1.845045 1.058035 -0.060833
v 1.953923 1.043987 -0.081816
v 2.063146 1.030974 -0.102873
v 2.172643 1.018971 -0.123992
v 2.282353 1.007952 -0.145160
v 1.304603 1.137883 0.030399
v 1.410897 1.118183 0.010737
v 1.517900 1.099687 -0.009069
v 1.625537 1.082355 -0.029005
v 1.733730 1.066154 -0.049055
v 1.842407 1.051048 -0.069207
v 1.951496 1.037005 -0.089446
v 2.060926 1.023997 -0.109758
v 2.170630 1.011997 -0.130132
v 2.280543 1.000978 -0.150554
v 1.303686 1.144683 0.017652
v 1.410043 1.124985 -0.001238
v 1.517110 1.106491 -0.020273
v 1.624812 1.089163 -0.039437
v 1.733073 1.072967 -0.058717
v 1.841820 1.057867 -0.078098
v 1.950981 1.043834 -0.097567
v 2.060487 1.030836 -0.117110
v 2.170267 1.018847 -0.136715
v 2.280260 1.007843 -0.156369
v 1.313795 1.173872 0.041212
v 1.419205 1.154262 0.020960
v 1.525327 1.135855 0.000563
v 1.632087 1.118612 -0.019965
v 1.739411 1.102500 -0.040609
v 1.847225 1.087485 -0.061355
v 1.955461 1.073537 -0.082190
v 2.064048 1.060628 -0.103101
v 2.172921 1.048728 -0.124075
v 2.282014 1.037816 -0.145100
vn -0.1791 -0.9829 0.0430
vn 0.0711 -0.4917 0.8679
vn -0.5352 -0.2713 0.8000
vn -0.7480 -0.6474 0.1460
vn -0.0605 0.4922 -0.8684
vn -0.2452 -0.5081 -0.8256
vn -0.7869 -0.2844 -0.5476
vn -0.6287 0.5148 -0.5829
vn -0.4406 0.8947 0.0736
vn -0.3777 0.5279 0.7607
vn 0.2553 0.5086 0.8223
vn 0.1831 0.9821 -0.0437
vn 0.0192 0.2272 -0.9737
vn 0.8949 0.4121 -0.1712
vn 0.6018 -0.7917 -0.1047
vn -0.0363 -0.2168 -0.9756
vn 0.3685 0.2454 0.8966
vn 0.3190 -0.1983 0.9268
vn 0.7671 0.6239 -0.1493
vn 0.7887 0.3286 0.5195
vn 0.6051 -0.5634 0.5625
vn 0.4562 -0.8866 -0.0766
vn 0.5469 0.3160 -0.7753
vn 0.3633 -0.5760 -0.7323
vn -0.4562 0.8866 0.0766
vn -0.7671 -0.6239 0.1493
vn -0.5469 -0.3160 0.7753
vn -0.3633 0.5760 0.7323
vn -0.6051 0.5634 -0.5625
vn -0.7887 -0.3286 -0.5195
vn -0.2564 -0.9074 -0.3331
vn -0.1157 -0.9000 0.4202
vn 0.1836 0.0096 0.9830
vn 0.2564 0.9074 0.3331
vn 0.1157 0.9000 -0.4202
vn -0.1836 -0.0096 -0.9830
vn -0.9621 0.2066 0.1777
vn 0.9621 -0.2066 -0.1777
vn 0.8842 -0.1609 0.4384
vn 0.3195 -0.6760 0.6641
vn 0.0832 -0.9965 -0.0059
vn 0.6669 -0.1722 -0.7249
vn 0.0607 -0.6894 -0.7218
vn 0.3137 0.5400 -0.7810
vn 0.4690 0.8779 -0.0961
vn 0.5726 0.5534 0.6049
vn -0.8606 -0.4817 0.1654
vn -0.2558 -0.3791 0.8893
vn -0.2284 0.0937 0.9690
vn -0.5631 0.0763 -0.8229
vn -0.5582 -0.3948 -0.7297
vn -0.3712 0.5137 -0.7735
vn -0.5978 0.7949 0.1039
vn -0.0688 0.5295 0.8455
vn -0.0365 -0.9992 0.0165
vn -0.1818 -0.3280 -0.9270
vn -0.1329 -0.3026 -0.9438
vn 0.2195 -0.9751 -0.0315
vn 0.1661 -0.3099 0.9361
vn 0.2177 -0.2844 0.9337
vn 0.2041 0.4052 0.8911
vn 0.0817 0.9963 -0.0249
vn -0.1327 0.3877 -0.9122
vn -0.1287 0.3993 -0.9078
vn 0.0865 0.9959 -0.0258
vn 0.2062 0.4167 0.8854
vn 0.1466 -0.3306 0.9323
vn 0.2097 0.4322 0.8771
vn 0.0803 -0.4817 0.8727
vn 0.2492 0.5046 0.8266
vn 0.0891 -0.4705 0.8779
vn 0.2432 0.5002 0.8310
vn 0.0977 -0.4576 0.8838
vn 0.2375 0.4950 0.8358
vn 0.1061 -0.4429 0.8903
vn 0.2321 0.4886 0.8411
vn 0.1145 -0.4260 0.8975
vn 0.2270 0.4810 0.8468
vn 0.1227 -0.4067 0.9053
vn 0.2222 0.4720 0.8531
vn 0.1308 -0.3846 0.9138
vn 0.2178 0.4612 0.8602
vn 0.1388 -0.3594 0.9228
vn 0.2136 0.4481 0.8681
vn -0.0866 -0.9959 0.0258
vn -0.1986 -0.3486 -0.9160
vn -0.0956 -0.9950 0.0275
vn -0.2024 -0.3772 -0.9038
vn -0.1048 -0.9941 0.0292
vn -0.2065 -0.4022 -0.8920
vn -0.1143 -0.9930 0.0310
vn -0.2109 -0.4240 -0.8807
vn -0.1240 -0.9917 0.0328
vn -0.2157 -0.4432 -0.8701
vn -0.1341 -0.9904 0.0347
vn -0.2208 -0.4599 -0.8601
vn -0.1446 -0.9888 0.0366
vn -0.2263 -0.4744 -0.8507
vn -0.1555 -0.9871 0.0386
vn -0.2321 -0.4872 -0.8419
vn -0.1669 -0.9851 0.0408
vn -0.2384 -0.4983 -0.8336
vn -0.1225 0.4149 -0.9016
vn 0.0936 0.9952 -0.0272
vn -0.1157 0.4310 -0.8949
vn 0.1021 0.9944 -0.0287
vn -0.1090 0.4442 -0.8893
vn 0.1109 0.9934 -0.0304
vn -0.1023 0.4551 -0.8845
vn 0.1200 0.9923 -0.0321
vn -0.0956 0.4643 -0.8805
vn 0.1296 0.9910 -0.0338
vn -0.0888 0.4719 -0.8772
vn 0.1395 0.9896 -0.0357
vn -0.0819 0.4783 -0.8743
vn 0.1498 0.9880 -0.0376
vn -0.0749 0.4837 -0.8720
vn 0.1606 0.9862 -0.0396
vn -0.0677 0.4881 -0.8701
vn 0.1719 0.9842 -0.0417
vt 0.625000 0.750000
vt 0.625000 0.500000
vt 0.625000 0.625000
vt 0.875000 0.625000
vt 0.875000 0.500000
vt 0.625000 0.500000
vt 0.625000 0.625000
vt 0.625000 0.750000
vt 0.875000 0.750000
vt 0.875000 0.625000
vt 0.875000 0.500000
vt 0.625000 0.500000
vt 0.625000 0.625000
vt 0.625000 0.750000
vt 0.875000 0.750000
vt 0.875000 0.625000
vt 0.875000 0.500000
vt 0.625000 0.500000
vt 0.625000 0.625000
vt 0.625000 0.750000
vt 0.875000 0.750000
vt 0.000000 0.000000
vt 0.000000 0.000000
vt 0.000000 0.000000
vt 0.000000 0.000000
vt 0.000000 0.000000
vt 0.000000 0.000000
vt 0.000000 0.000000
vt 0.000000 0.000000
vt 0.000000 0.000000
vt 0.000000 0.000000
vt 0.000000 0.000000
vt 0.000000 0.000000
vt 0.000000 0.000000
vt 0.000000 0.000000
vt 0.000000 0.000000
vt 0.000000 0.000000
vt 0.875000 0.625000
vt 0.875000 0.500000
vt 0.625000 0.500000
vt 0.625000 0.625000
vt 0.625000 0.750000
vt 0.875000 0.750000
vt 0.750000 0.500000
vt 0.750000 0.750000
vt 0.750000 0.625000
vt 0.875000 0.625000
vt 0.875000 0.500000
vt 0.625000 0.500000
vt 0.625000 0.625000
vt 0.625000 0.750000
vt 0.875000 0.750000
vt 0.750000 0.500000
vt 0.750000 0.750000
vt 0.750000 0.625000
vt 0.875000 0.625000
vt 0.875000 0.500000
vt 0.750000 0.500000
vt 0.625000 0.500000
vt 0.625000 0.625000
vt 0.625000 0.750000
vt 0.750000 0.750000
vt 0.875000 0.750000
vt 0.750000 0.625000
vt 0.875000 0.750000
vt 0.723844 0.750000
vt 0.860842 0.750000
vt 0.723844 0.500000
vt 0.875000 0.500000
vt 0.860842 0.500000
vt 0.778311 0.625000
vt 0.875000 0.625000
vt 0.925629 0.625000
vt 0.625000 0.625000
vt 0.625000 0.750000
vt 0.625000 0.500000
vt 0.625000 0.750000
vt 0.625000 0.625000
vt 0.625000 0.500000
vt 0.625000 0.625000
vt 0.625000 0.625000
vt 0.625000 0.625000
vt 0.625000 0.625000
vt 0.625000 0.625000
vt 0.625000 0.625000
vt 0.625000 0.625000
vt 0.625000 0.625000
vt 0.625000 0.625000
vt 0.625000 0.625000
vt 0.625000 0.500000
vt 0.625000 0.500000
vt 0.625000 0.500000
vt 0.625000 0.500000
vt 0.625000 0.500000
vt 0.625000 0.500000
vt 0.625000 0.500000
vt 0.625000 0.500000
vt 0.625000 0.500000
vt 0.625000 0.500000
vt 0.875000 0.750000
vt 0.875000 0.750000
vt 0.875000 0.750000
vt 0.875000 0.750000
vt 0.875000 0.750000
vt 0.875000 0.750000
vt 0.875000 0.750000
vt 0.875000 0.750000
vt 0.875000 0.750000
vt 0.875000 0.750000
vt 0.875000 0.625000
vt 0.875000 0.625000
vt 0.875000 0.625000
vt 0.875000 0.625000
vt 0.875000 0.625000
vt 0.875000 0.625000
vt 0.875000 0.625000
vt 0.875000 0.625000
vt 0.875000 0.625000
vt 0.875000 0.625000
vt 0.875000 0.500000
vt 0.875000 0.500000
vt 0.875000 0.500000
vt 0.875000 0.500000
vt 0.875000 0.500000
vt 0.875000 0.500000
vt 0.875000 0.500000
vt 0.875000 0.500000
vt 0.875000 0.500000
vt 0.875000 0.500000
vt 0.625000 0.750000
vt 0.625000 0.750000
vt 0.625000 0.750000
vt 0.625000 0.750000
vt 0.625000 0.750000
vt 0.625000 0.750000
vt 0.625000 0.750000
vt 0.625000 0.750000
vt 0.625000 0.750000
vt 0.625000 0.750000
s 1
usemtl glow
f 110/110/1 100/100/2 9/9/3 4/4/4
f 99/99/5 120/120/6 5/5/7 6/6/8
f 7/7/9 4/4/4 9/9/3 8/8/10
f 6/6/8 5/5/7 4/4/4 7/7/9
f 130/130/11 89/89/12 7/7/9 8/8/10
f 2/2/13 3/3/14 71/71/15 68/68/16
f 89/89/12 99/99/5 6/6/8 7/7/9
f 3/3/14 1/1/17 66/66/18 71/71/15
f 120/120/6 110/110/1 4/4/4 5/5/7
usemtl metal_B
f 13/13/19 14/14/20 15/15/21 10/10/22
f 12/12/23 13/13/19 10/10/22 11/11/24
f 19/19/25 16/16/26 21/21/27 20/20/28
f 18/18/29 17/17/30 16/16/26 19/19/25
f 10/10/22 15/15/21 21/21/27 16/16/26
f 14/14/20 13/13/19 19/19/25 20/20/28
f 11/11/24 10/10/22 16/16/26 17/17/30
f 13/13/19 12/12/23 18/18/29 19/19/25
f 15/15/21 14/14/20 20/20/28 21/21/27
f 12/12/23 11/11/24 17/17/30 18/18/29
s 0
usemtl black.004
f 28/28/31 29/29/31 23/23/31 26/26/31
f 33/33/32 28/28/32 26/26/32 22/22/32
f 37/37/33 33/33/33 22/22/33 35/35/33
f 32/32/33 37/37/33 35/35/33 24/24/33
f 31/31/34 32/32/34 24/24/34 27/27/34
f 30/30/35 31/31/35 27/27/35 25/25/35
f 36/36/36 30/30/36 25/25/36 34/34/36
f 29/29/36 36/36/36 34/34/36 23/23/36
s 1
usemtl metal_B
f 46/46/37 38/38/37 43/43/37 45/45/37
f 44/44/37 39/39/37 38/38/37 46/46/37
f 40/40/37 44/44/37 46/46/37 41/41/37
f 41/41/37 46/46/37 45/45/37 42/42/37
usemtl black.004
f 55/55/38 54/54/39 52/52/40 47/47/41
f 53/53/42 55/55/38 47/47/41 48/48/43
f 49/49/44 50/50/45 55/55/38 53/53/42
f 50/50/45 51/51/46 54/54/39 55/55/38
f 64/64/37 56/56/47 63/63/48 62/62/49
f 58/58/50 57/57/51 56/56/47 64/64/37
f 59/59/52 58/58/50 64/64/37 60/60/53
f 60/60/53 64/64/37 62/62/49 61/61/54
f 47/47/41 52/52/40 63/63/48 56/56/47
f 51/51/46 50/50/45 60/60/53 61/61/54
f 48/48/43 47/47/41 56/56/47 57/57/51
f 53/53/42 48/48/43 57/57/51 58/58/50
f 50/50/45 49/49/44 59/59/52 60/60/53
f 52/52/40 54/54/39 62/62/49 63/63/48
f 49/49/44 53/53/42 58/58/50 59/59/52
f 54/54/39 51/51/46 61/61/54 62/62/49
usemtl glow
f 72/72/55 69/69/56 70/70/57 73/73/58
f 73/73/58 70/70/57 68/68/16 71/71/15
f 65/65/59 72/72/55 73/73/58 67/67/60
f 67/67/60 73/73/58 71/71/15 66/66/18
f 67/67/60 66/66/18 1/1/17 77/77/61
f 78/78/62 79/79/63 76/76/64 74/74/65
f 77/77/61 78/78/62 74/74/65 75/75/66
f 109/109/67 65/65/59 75/75/66 139/139/68
f 79/79/63 70/70/57 69/69/56 76/76/64
f 1/1/17 3/3/14 78/78/62 77/77/61
f 3/3/14 2/2/13 79/79/63 78/78/62
f 65/65/59 67/67/60 77/77/61 75/75/66
f 2/2/13 68/68/16 70/70/57 79/79/63
f 9/9/3 100/100/2 130/130/11 8/8/10
f 100/100/2 101/101/69 131/131/70 130/130/11
f 101/101/69 102/102/71 132/132/72 131/131/70
f 102/102/71 103/103/73 133/133/74 132/132/72
f 103/103/73 104/104/75 134/134/76 133/133/74
f 104/104/75 105/105/77 135/135/78 134/134/76
f 105/105/77 106/106/79 136/136/80 135/135/78
f 106/106/79 107/107/81 137/137/82 136/136/80
f 107/107/81 108/108/83 138/138/84 137/137/82
f 108/108/83 109/109/67 139/139/68 138/138/84
f 69/69/56 72/72/55 119/119/85 129/129/86
f 129/129/86 119/119/85 118/118/87 128/128/88
f 128/128/88 118/118/87 117/117/89 127/127/90
f 127/127/90 117/117/89 116/116/91 126/126/92
f 126/126/92 116/116/91 115/115/93 125/125/94
f 125/125/94 115/115/93 114/114/95 124/124/96
f 124/124/96 114/114/95 113/113/97 123/123/98
f 123/123/98 113/113/97 112/112/99 122/122/100
f 122/122/100 112/112/99 111/111/101 121/121/102
f 121/121/102 111/111/101 110/110/1 120/120/6
f 74/74/65 76/76/64 90/90/103 80/80/104
f 80/80/104 90/90/103 91/91/105 81/81/106
f 81/81/106 91/91/105 92/92/107 82/82/108
f 82/82/108 92/92/107 93/93/109 83/83/110
f 83/83/110 93/93/109 94/94/111 84/84/112
f 84/84/112 94/94/111 95/95/113 85/85/114
f 85/85/114 95/95/113 96/96/115 86/86/116
f 86/86/116 96/96/115 97/97/117 87/87/118
f 87/87/118 97/97/117 98/98/119 88/88/120
f 88/88/120 98/98/119 99/99/5 89/89/12
f 75/75/66 74/74/65 80/80/104 139/139/68
f 139/139/68 80/80/104 81/81/106 138/138/84
f 138/138/84 81/81/106 82/82/108 137/137/82
f 137/137/82 82/82/108 83/83/110 136/136/80
f 136/136/80 83/83/110 84/84/112 135/135/78
f 135/135/78 84/84/112 85/85/114 134/134/76
f 134/134/76 85/85/114 86/86/116 133/133/74
f 133/133/74 86/86/116 87/87/118 132/132/72
f 132/132/72 87/87/118 88/88/120 131/131/70
f 131/131/70 88/88/120 89/89/12 130/130/11
f 76/76/64 69/69/56 129/129/86 90/90/103
f 90/90/103 129/129/86 128/128/88 91/91/105
f 91/91/105 128/128/88 127/127/90 92/92/107
f 92/92/107 127/127/90 126/126/92 93/93/109
f 93/93/109 126/126/92 125/125/94 94/94/111
f 94/94/111 125/125/94 124/124/96 95/95/113
f 95/95/113 124/124/96 123/123/98 96/96/115
f 96/96/115 123/123/98 122/122/100 97/97/117
f 97/97/117 122/122/100 121/121/102 98/98/119
f 98/98/119 121/121/102 120/120/6 99/99/5
f 72/72/55 65/65/59 109/109/67 119/119/85
f 119/119/85 109/109/67 108/108/83 118/118/87
f 118/118/87 108/108/83 107/107/81 117/117/89
f 117/117/89 107/107/81 106/106/79 116/116/91
f 116/116/91 106/106/79 105/105/77 115/115/93
f 115/115/93 105/105/77 104/104/75 114/114/95
f 114/114/95 104/104/75 103/103/73 113/113/97
f 113/113/97 103/103/73 102/102/71 112/112/99
f 112/112/99 102/102/71 101/101/69 111/111/101
f 111/111/101 101/101/69 100/100/2 110/110/1
